<svg width="860" height="520" viewBox="0 0 860 520" xmlns="http://www.w3.org/2000/svg" font-family="-apple-system, BlinkMacSystemFont, 'Segoe UI', sans-serif">

  <!-- Background -->
  <rect width="860" height="520" rx="16" fill="#0d1117"/>

  <!-- Title -->
  <text x="430" y="52" text-anchor="middle" font-size="22" font-weight="700" fill="#e6edf3">Jornada de Aprendizado</text>
  <line x1="50" y1="68" x2="810" y2="68" stroke="#21262d" stroke-width="1"/>

  <!-- CENTER LINE -->
  <line x1="430" y1="90" x2="430" y2="490" stroke="#21262d" stroke-width="2" stroke-dasharray="6,5"/>

  <!-- ── STEP 1 ── left side -->
  <!-- connector from center to dot -->
  <line x1="370" y1="118" x2="406" y2="118" stroke="#21262d" stroke-width="1.5"/>
  <!-- dot -->
  <circle cx="430" cy="118" r="18" fill="#1a2a1e" stroke="#1D9E75" stroke-width="2"/>
  <text x="430" y="123" text-anchor="middle" font-size="11" font-weight="700" fill="#1D9E75">2023</text>
  <!-- card left -->
  <rect x="90" y="90" width="270" height="56" rx="10" fill="#161b22" stroke="#1D9E75" stroke-width="1"/>
  <text x="225" y="113" text-anchor="middle" font-size="15" font-weight="600" fill="#e6edf3">Fundamentos</text>
  <text x="225" y="133" text-anchor="middle" font-size="12" fill="#8b949e">Lógica · Algoritmos · C · C++</text>

  <!-- ── STEP 2 ── right side -->
  <line x1="454" y1="198" x2="490" y2="198" stroke="#21262d" stroke-width="1.5"/>
  <circle cx="430" cy="198" r="18" fill="#1a2a1e" stroke="#1D9E75" stroke-width="2"/>
  <text x="430" y="203" text-anchor="middle" font-size="11" font-weight="700" fill="#1D9E75">2023</text>
  <rect x="500" y="170" width="270" height="56" rx="10" fill="#161b22" stroke="#1D9E75" stroke-width="1"/>
  <text x="635" y="193" text-anchor="middle" font-size="15" font-weight="600" fill="#e6edf3">POO &amp; Estrutura</text>
  <text x="635" y="213" text-anchor="middle" font-size="12" fill="#8b949e">Orientação a objetos com Java</text>

  <!-- ── STEP 3 ── left side -->
  <line x1="370" y1="278" x2="406" y2="278" stroke="#21262d" stroke-width="1.5"/>
  <circle cx="430" cy="278" r="18" fill="#1a2338" stroke="#534AB7" stroke-width="2"/>
  <text x="430" y="283" text-anchor="middle" font-size="11" font-weight="700" fill="#9b8fe8">2024</text>
  <rect x="90" y="250" width="270" height="56" rx="10" fill="#161b22" stroke="#534AB7" stroke-width="1"/>
  <text x="225" y="273" text-anchor="middle" font-size="15" font-weight="600" fill="#e6edf3">Desenvolvimento Web</text>
  <text x="225" y="293" text-anchor="middle" font-size="12" fill="#8b949e">HTML · CSS · JavaScript</text>

  <!-- ── STEP 4 ── right side -->
  <line x1="454" y1="358" x2="490" y2="358" stroke="#21262d" stroke-width="1.5"/>
  <circle cx="430" cy="358" r="18" fill="#1a2338" stroke="#534AB7" stroke-width="2"/>
  <text x="430" y="363" text-anchor="middle" font-size="11" font-weight="700" fill="#9b8fe8">2024</text>
  <rect x="500" y="330" width="270" height="56" rx="10" fill="#161b22" stroke="#534AB7" stroke-width="1"/>
  <text x="635" y="353" text-anchor="middle" font-size="15" font-weight="600" fill="#e6edf3">Frameworks &amp; Design</text>
  <text x="635" y="373" text-anchor="middle" font-size="12" fill="#8b949e">Tailwind · Bootstrap · Figma</text>

  <!-- ── STEP 5 ── left side -->
  <line x1="370" y1="438" x2="406" y2="438" stroke="#21262d" stroke-width="1.5"/>
  <circle cx="430" cy="438" r="18" fill="#1f1a10" stroke="#EF9F27" stroke-width="2"/>
  <text x="430" y="443" text-anchor="middle" font-size="11" font-weight="700" fill="#EF9F27">2025</text>
  <rect x="90" y="410" width="270" height="56" rx="10" fill="#161b22" stroke="#EF9F27" stroke-width="1"/>
  <text x="225" y="433" text-anchor="middle" font-size="15" font-weight="600" fill="#e6edf3">Back-end</text>
  <text x="225" y="453" text-anchor="middle" font-size="12" fill="#8b949e">PHP e integração server-side</text>

  <!-- ── STEP 6 ── right side (próximo) -->
  <line x1="454" y1="490" x2="490" y2="490" stroke="#484f58" stroke-width="1.5" stroke-dasharray="4,3"/>
  <circle cx="430" cy="490" r="18" fill="#21262d" stroke="#484f58" stroke-width="2" stroke-dasharray="5,3"/>
  <text x="430" y="495" text-anchor="middle" font-size="16" font-weight="700" fill="#484f58">?</text>
  <rect x="500" y="462" width="270" height="56" rx="10" fill="#161b22" stroke="#484f58" stroke-width="1" stroke-dasharray="5,3"/>
  <text x="635" y="485" text-anchor="middle" font-size="15" font-weight="600" fill="#484f58">Próximo Capítulo</text>
  <text x="635" y="505" text-anchor="middle" font-size="12" fill="#484f58">Em construção...</text>

</svg>
